<?xml version="1.0" standalone="no"?>
<!DOCTYPE svg PUBLIC "-//W3C//DTD SVG 20010904//EN"
 "http://www.w3.org/TR/2001/REC-SVG-20010904/DTD/svg10.dtd">
<svg version="1.0" xmlns="http://www.w3.org/2000/svg"
 width="512.000000pt" height="512.000000pt" viewBox="0 0 512.000000 512.000000"
 preserveAspectRatio="xMidYMid meet">

<g transform="translate(0.000000,512.000000) scale(0.100000,-0.100000)"
fill="#000000" stroke="none">
<path d="M0 2560 l0 -2560 2560 0 2560 0 0 2560 0 2560 -2560 0 -2560 0 0
-2560z m2500 2380 c0 -150 -1 -160 -19 -160 -10 0 -65 -5 -122 -10 -529 -52
-966 -253 -1338 -615 -139 -135 -219 -231 -314 -373 -204 -304 -321 -643 -357
-1032 -7 -69 -15 -128 -19 -133 -4 -4 -75 -6 -157 -5 l-149 3 2 115 c7 312 99
657 261 974 124 244 259 432 452 630 286 294 631 512 1015 641 205 69 485 119
683 124 l62 1 0 -160z m335 145 c312 -35 560 -107 832 -240 650 -319 1152
-924 1332 -1605 49 -186 91 -456 91 -582 l0 -48 -159 0 -159 0 -6 68 c-54 624
-258 1069 -677 1478 -383 373 -840 574 -1406 620 l-83 6 0 159 0 159 53 0 c28
0 111 -7 182 -15z m-335 -1054 l0 -628 -96 -17 c-119 -21 -221 -53 -339 -105
l-90 -41 -353 353 c-395 395 -409 413 -399 513 9 83 38 120 164 203 196 132
442 240 671 295 118 28 413 68 435 58 4 -2 7 -286 7 -631z m425 599 c315 -56
607 -180 861 -366 52 -38 76 -64 92 -98 27 -57 28 -127 3 -181 -13 -26 -141
-162 -374 -394 l-355 -354 -93 46 c-127 61 -247 95 -401 112 l-58 6 0 632 0
633 108 -8 c59 -5 157 -17 217 -28z m-1775 -721 c32 -14 139 -114 397 -372
320 -319 352 -353 336 -365 -17 -12 -266 -164 -722 -439 l-204 -123 -253 0
c-139 0 -255 3 -257 8 -6 12 31 290 53 397 62 291 238 662 395 834 72 79 165
101 255 60z m2970 1 c57 -16 106 -65 185 -185 153 -232 262 -494 311 -746 16
-85 44 -300 44 -341 l0 -28 -248 0 -248 0 -174 106 c-96 59 -247 150 -335 204
-366 222 -415 253 -415 259 0 12 667 673 700 694 37 24 97 46 125 47 11 0 36
-4 55 -10z m-1365 -794 c331 -127 477 -494 323 -814 -45 -93 -169 -218 -259
-260 -175 -83 -383 -81 -541 5 -121 66 -233 197 -278 324 -27 80 -37 225 -21
311 41 213 213 393 431 453 88 24 257 15 345 -19z m-2415 -629 c0 -67 31 -295
56 -406 92 -419 283 -762 598 -1077 402 -401 830 -595 1439 -650 l67 -6 0
-160 0 -160 -97 6 c-385 26 -685 107 -1003 272 -801 417 -1323 1213 -1376
2102 l-7 112 161 0 162 0 0 -33z m942 -168 c183 -111 389 -236 458 -277 69
-41 127 -77 130 -79 9 -8 -706 -714 -738 -729 -77 -36 -161 -26 -226 28 -46
38 -160 209 -230 347 -125 245 -203 530 -222 811 l-7 100 251 0 250 0 334
-201z m3378 178 c0 -64 -24 -255 -45 -362 -57 -284 -186 -577 -356 -808 -73
-100 -161 -131 -257 -91 -25 10 -154 132 -393 370 l-355 354 265 162 c146 89
354 215 461 280 l194 118 243 0 243 0 0 -23z m430 -19 c0 -24 -7 -104 -15
-178 -75 -714 -434 -1340 -1019 -1779 -375 -282 -857 -456 -1346 -487 l-110
-7 0 161 0 160 88 7 c581 44 1072 274 1467 686 242 253 412 543 513 874 51
167 76 304 97 538 l7 67 159 0 159 0 0 -42z m-1579 -902 c179 -182 343 -356
363 -387 43 -65 57 -142 37 -202 -32 -97 -342 -296 -625 -401 -186 -70 -466
-126 -627 -126 l-59 0 0 635 0 635 39 0 c133 0 367 73 496 154 22 14 42 25 45
24 3 0 152 -150 331 -332z m-1441 267 c110 -55 253 -98 365 -109 l65 -7 -2
-635 -3 -636 -65 3 c-348 13 -727 139 -1032 343 -160 107 -198 154 -198 248 0
94 21 120 401 500 194 193 355 349 358 348 4 -2 54 -26 111 -55z"/>
<path d="M2469 2897 c-103 -29 -185 -101 -231 -203 -33 -73 -32 -189 4 -265
36 -79 90 -134 162 -168 76 -36 135 -45 206 -31 152 29 254 133 281 288 19
108 -33 242 -121 312 -84 67 -206 94 -301 67z"/>
</g>
</svg>
